Coordinates
version=1
nRows=19
nColumns=33
inDegrees=yes

Units are S.I. units (second, meters, Newtons, ...)
Angles are in degrees.

endheader
time	ground_thorax_rot_x	ground_thorax_rot_y	ground_thorax_rot_z	ground_thorax_tx	ground_thorax_ty	ground_thorax_tz	clav_prot_r	clav_elev_r	scapula_abduction_r	scapula_elevation_r	scapula_upward_rot_r	scapula_winging_r	shoulder_elv_r	plane_of_elev_r	axial_rot_r	elbow_flexion_r	pro_sup_r	wrist_flex_r	wrist_dev_r	clav_prot_l	clav_elev_l	scapula_abduction_l	scapula_elevation_l	scapula_upward_rot_l	scapula_winging_l	shoulder_elv_l	plane_of_elev_l	axial_rot_l	elbow_flexion_l	pro_sup_l	wrist_flex_l	wrist_dev_l
      2.79000000	     36.90963483	      9.10424994	     15.46932475	   -230.76251302	    821.65332587	     -0.47469420	     15.64913679	     38.28317988	     39.09226948	     45.00000000	    -45.00000000	   2072.28666862	  -2268.15497546	    147.67022314	   -137.65583756	   1814.99799812	     48.45488298	     19.20407127	      4.97732803	     10.14536888	    -45.00000000	    -37.52119597	     45.00000000	    -44.99039770	   -981.01547867	  -1005.83226610	     24.79660430	    -15.39433695	   1446.16549687	     27.20643414	      7.62368887	    -23.22520192
      2.80000000	     36.90889354	      9.16605479	     15.53684968	   -230.55548835	    821.00803125	     -0.62368582	     15.73042789	     37.83951076	     38.80929218	     45.00000000	    -45.00000000	   2072.60027690	  -2267.96098007	    147.83101491	   -138.02036623	   1815.39980202	     50.26021430	     18.86685841	      5.17441402	     10.32814758	    -45.00000000	    -37.34815993	     45.00000000	    -44.99878691	   -981.45913492	  -1005.53645401	     24.41863950	    -15.31807323	   1446.42366368	     27.40868781	      8.30207519	    -23.28396640
      2.81000000	     36.88435920	      9.18510057	     15.67879324	   -230.11567042	    820.35450058	     -0.78078845	     15.71861046	     38.01489009	     38.77453390	     45.00000000	    -45.00000000	   2072.55532691	  -2268.09284899	    147.75821721	   -138.21535343	   1815.54678195	     51.85645241	     18.87129385	      4.93126714	     10.32144072	    -45.00000000	    -37.37218005	     45.00000000	    -44.92213791	   -981.32211547	  -1005.74238485	     24.57466865	    -15.37759973	   1446.28220243	     27.49021657	      7.80802985	    -23.24734280
      2.82000000	     36.83346935	      9.23225998	     15.80373279	   -229.48530314	    819.69996586	     -0.94829532	     15.74938139	     37.85946772	     38.71097749	     45.00000000	    -45.00000000	   2072.76784950	  -2268.06265943	    147.81361809	   -138.38292265	   1815.69258483	     53.34310624	     18.70162430	      4.85599797	     10.39612736	    -45.00000000	    -37.32500283	     45.00000000	    -44.81432539	   -981.52893411	  -1005.64080316	     24.36083179	    -15.59882211	   1446.34682702	     27.69834044	      7.80980036	    -23.24009490
      2.83000000	     36.78965513	      9.39498570	     15.94734673	   -228.72569870	    819.06534162	     -1.12247267	     15.67572887	     37.97567038	     38.54170252	     45.00000000	    -45.00000000	   2072.88437938	  -2268.08496429	    147.75595025	   -138.61599831	   1815.68695893	     54.67344048	     18.56104913	      4.72425622	     10.42696706	    -45.00000000	    -37.49961229	     45.00000000	    -44.96569680	   -981.54110037	  -1005.75917821	     24.43833573	    -15.83128242	   1446.29152256	     27.88627212	      7.47925994	    -23.19163341
      2.84000000	     36.78226353	      9.47654613	     16.05505178	   -227.88407559	    818.45448662	     -1.30277902	     15.60692882	     37.70442123	     38.13707209	     45.00000000	    -45.00000000	   2073.08103852	  -2267.63530738	    147.56003285	   -138.84848397	   1816.08652963	     55.84378807	     18.46883892	      4.60167787	     10.56502215	    -45.00000000	    -37.60171220	     45.00000000	    -44.78551245	   -981.72717067	  -1005.71575778	     24.19574788	    -16.02585115	   1446.45334497	     28.11959651	      7.36468243	    -23.19689506
      2.85000000	     36.81277447	      9.34688966	     16.06426165	   -227.00961008	    817.87888630	     -1.48405248	     15.41112175	     37.91614883	     38.61042747	     45.00000000	    -45.00000000	   2072.95918058	  -2267.98768713	    147.66932022	   -139.25088019	   1816.14709564	     57.27126070	     18.29900993	      4.47834677	     10.62738092	    -45.00000000	    -37.54372275	     45.00000000	    -44.84366039	   -981.61102109	  -1005.85504417	     24.39699963	    -16.33050712	   1446.57153833	     28.41736966	      7.10779314	    -23.18796323
      2.86000000	     36.92305336	      9.00128632	     15.85543401	   -226.13390579	    817.34669842	     -1.66133270	     15.61706656	     37.97260362	     39.03262397	     45.00000000	    -45.00000000	   2072.89250952	  -2268.13190891	    147.61339552	   -139.39782844	   1816.37794682	     59.41131352	     18.21572973	      4.36931958	     10.41781802	    -45.00000000	    -37.28076023	     45.00000000	    -44.65578436	   -981.83772197	  -1005.80416443	     24.40370615	    -16.56915106	   1446.63223935	     28.87771246	      6.90687430	    -23.16405308
      2.87000000	     36.83789819	      9.16481541	     16.03754774	   -225.29071521	    816.87977281	     -1.82675859	     15.49356888	     37.82317716	     38.78975413	     45.00000000	    -45.00000000	   2073.19551351	  -2267.88161189	    147.69006349	   -139.56645040	   1816.69215149	     61.02572091	     18.05179512	      4.21628699	     10.56915021	    -45.00000000	    -37.54940484	     45.00000000	    -44.67061765	   -981.79757130	  -1005.75731350	     24.31602172	    -16.71736829	   1446.79944677	     29.20111727	      6.71941049	    -23.17826885
      2.88000000	     36.80937500	      9.16617009	     16.07033590	   -224.47764631	    816.48814887	     -1.97679519	     15.61216162	     37.92537594	     38.76263382	     45.00000000	    -45.00000000	   2073.14093740	  -2267.87729972	    147.51399786	   -139.72738900	   1816.87293268	     62.62025100	     17.90389173	      4.10255424	     10.51148553	    -45.00000000	    -37.62277385	     45.00000000	    -44.48448714	   -981.87350895	  -1005.74825632	     24.20134988	    -16.80352759	   1446.86125444	     29.49346533	      6.56182218	    -23.15579698
      2.89000000	     36.92290263	      8.86832875	     15.83212310	   -223.69536190	    816.19148835	     -2.10633543	     15.65034889	     37.96334603	     39.18620940	     45.00000000	    -45.00000000	   2073.05851341	  -2268.00561435	    147.50435158	   -139.84969508	   1817.10201713	     64.89567523	     17.75678086	      3.98199096	     10.41354995	    -45.00000000	    -37.49954920	     45.00000000	    -44.20217166	   -982.01438602	  -1005.76795753	     24.27998073	    -16.98948511	   1446.76456810	     29.86002360	      6.48401938	    -23.14141798
      2.90000000	     36.85505597	      8.97557414	     15.91798554	   -222.92271795	    815.99907563	     -2.21492176	     15.63909704	     37.91152327	     39.04764993	     45.00000000	    -45.00000000	   2073.24612976	  -2267.80260308	    147.54252269	   -139.92693726	   1817.36463400	     66.71583571	     17.58440269	      3.83987459	     10.50281829	    -45.00000000	    -37.69729120	     45.00000000	    -44.08642957	   -981.97473233	  -1005.76022781	     24.24229925	    -17.01423045	   1446.88224423	     30.03623167	      6.40452726	    -23.13591677
      2.91000000	     36.85267233	      8.88717015	     15.88700835	   -222.13854976	    815.91479723	     -2.30404857	     15.71210119	     37.98525302	     39.08467243	     45.00000000	    -45.00000000	   2073.21694016	  -2267.83629430	    147.40448623	   -140.02913456	   1817.57640254	     68.59003219	     17.42824565	      3.72554167	     10.49049618	    -45.00000000	    -37.72229133	     45.00000000	    -43.83180673	   -982.00709155	  -1005.73853422	     24.20451140	    -16.98347010	   1446.97334459	     30.12007654	      6.35986122	    -23.12704297
      2.92000000	     36.83946524	      8.89227520	     15.92422315	   -221.31946284	    815.93247867	     -2.37813490	     15.47978689	     37.88400968	     39.05385891	     45.00000000	    -45.00000000	   2073.34946370	  -2267.64011499	    147.38196191	   -140.25768172	   1817.82447359	     70.62999138	     17.23478962	      3.59593897	     10.62887906	    -45.00000000	    -37.93686389	     45.00000000	    -43.64051127	   -981.95446843	  -1005.75114222	     24.19441972	    -16.99063105	   1446.96507802	     30.12913956	      6.39024786	    -23.12191128
      2.93000000	     36.88445209	      8.82494783	     15.78910361	   -220.44332240	    816.03850234	     -2.44341338	     15.59234401	     37.93958049	     39.17064371	     45.00000000	    -45.00000000	   2073.27826960	  -2267.61661807	    147.33079569	   -140.41961182	   1818.10668629	     72.80736693	     17.08836786	      3.48044731	     10.63838452	    -45.00000000	    -37.98375901	     45.00000000	    -43.33565704	   -982.06184634	  -1005.74250162	     24.24507073	    -16.96226399	   1446.98052486	     30.02538360	      6.42244164	    -23.10216031
      2.94000000	     36.84834174	      8.79777953	     15.82915653	   -219.49569289	    816.21447689	     -2.50613777	     15.42075184	     37.87725740	     39.15479235	     45.00000000	    -45.00000000	   2073.41781671	  -2267.45222140	    147.30359681	   -140.67159882	   1818.39426142	     75.03931748	     16.88305369	      3.35855233	     10.71043619	    -45.00000000	    -38.19336893	     45.00000000	    -43.12621888	   -982.02684562	  -1005.73542079	     24.19826775	    -16.94296904	   1447.01973206	     29.83556100	      6.50054230	    -23.10303375
      2.95000000	     36.96292968	      8.48391526	     15.54656888	   -218.46547240	    816.43880924	     -2.57238646	     16.07364617	     38.06606699	     39.56147189	     45.00000000	    -45.00000000	   2073.09187781	  -2268.62368089	    147.72347682	   -124.59949013	   1824.90901081	    148.33837477	     13.06770587	      4.94588153	     10.54646408	    -45.00000000	    -38.13207428	     45.00000000	    -42.09000859	   -982.18025777	  -1005.84894800	     23.82512608	    -18.49605024	   1446.80432210	     24.92578638	      7.06159319	    -22.64549427
      2.96000000	     36.80032441	      8.76965639	     15.85304750	   -217.34363340	    816.69309681	     -2.64486326	     15.20047699	     37.78025802	     39.25409574	     45.00000000	    -45.00000000	   2073.48305302	  -2268.28460710	    147.94564508	   -125.23343047	   1825.01103824	    148.59883378	     12.82257277	      4.96286339	     10.62192093	    -45.00000000	    -38.40656299	     45.00000000	    -42.58491050	   -982.04141840	  -1005.71311182	     24.00161258	    -18.25123297	   1447.03437058	     25.26411289	      7.25354015	    -22.82313432
      2.97000000	     36.83571378	      8.82584121	     15.75098231	   -216.11969308	    816.96202122	     -2.72547402	     15.30523041	     37.87446185	     39.17699519	     45.00000000	    -45.00000000	   2073.52530389	  -2268.09903400	    147.79867553	   -125.76969959	   1825.01996427	    148.84280929	     12.83517551	      4.94790860	     10.75041537	    -45.00000000	    -38.79018457	     45.00000000	    -42.37697880	   -982.20671858	  -1005.69682578	     23.91616066	    -17.86882149	   1447.12609568	     25.41651386	      7.18855345	    -22.80698470
